<svg width="24" height="25" viewBox="0 0 24 25" fill="none" xmlns="http://www.w3.org/2000/svg">
<path d="M20.25 5.65015H16.5V4.90015C16.5 4.30341 16.2629 3.73111 15.841 3.30916C15.419 2.8872 14.8467 2.65015 14.25 2.65015H9.75C9.15326 2.65015 8.58097 2.8872 8.15901 3.30916C7.73705 3.73111 7.5 4.30341 7.5 4.90015V5.65015H3.75C3.35218 5.65015 2.97064 5.80818 2.68934 6.08949C2.40804 6.37079 2.25 6.75232 2.25 7.15015V19.1501C2.25 19.548 2.40804 19.9295 2.68934 20.2108C2.97064 20.4921 3.35218 20.6501 3.75 20.6501H20.25C20.6478 20.6501 21.0294 20.4921 21.3107 20.2108C21.592 19.9295 21.75 19.548 21.75 19.1501V7.15015C21.75 6.75232 21.592 6.37079 21.3107 6.08949C21.0294 5.80818 20.6478 5.65015 20.25 5.65015ZM9 4.90015C9 4.70123 9.07902 4.51047 9.21967 4.36982C9.36032 4.22916 9.55109 4.15015 9.75 4.15015H14.25C14.4489 4.15015 14.6397 4.22916 14.7803 4.36982C14.921 4.51047 15 4.70123 15 4.90015V5.65015H9V4.90015ZM20.25 7.15015V11.0511C17.7185 12.429 14.8822 13.1507 12 13.1501C9.11794 13.1507 6.28165 12.4293 3.75 11.052V7.15015H20.25ZM20.25 19.1501H3.75V12.7414C6.31868 13.9978 9.1405 14.6507 12 14.6501C14.8596 14.6502 17.6813 13.997 20.25 12.7405V19.1501ZM9.75 10.9001C9.75 10.7012 9.82902 10.5105 9.96967 10.3698C10.1103 10.2292 10.3011 10.1501 10.5 10.1501H13.5C13.6989 10.1501 13.8897 10.2292 14.0303 10.3698C14.171 10.5105 14.25 10.7012 14.25 10.9001C14.25 11.0991 14.171 11.2898 14.0303 11.4305C13.8897 11.5711 13.6989 11.6501 13.5 11.6501H10.5C10.3011 11.6501 10.1103 11.5711 9.96967 11.4305C9.82902 11.2898 9.75 11.0991 9.75 10.9001Z" fill="white"/>
</svg>
