<svg width="24" height="25" viewBox="0 0 24 25" fill="none" xmlns="http://www.w3.org/2000/svg">
<path d="M21.6487 20.2751C20.2209 17.8067 18.0206 16.0367 15.4528 15.1976C16.7229 14.4415 17.7098 13.2893 18.2617 11.9181C18.8137 10.5468 18.9003 9.03226 18.5082 7.60703C18.116 6.1818 17.2669 4.92469 16.0912 4.02875C14.9155 3.13281 13.4782 2.64758 12 2.64758C10.5218 2.64758 9.08448 3.13281 7.90875 4.02875C6.73303 4.92469 5.88391 6.1818 5.4918 7.60703C5.09968 9.03226 5.18626 10.5468 5.73822 11.9181C6.29018 13.2893 7.27701 14.4415 8.54717 15.1976C5.97935 16.0358 3.77904 17.8058 2.35123 20.2751C2.29887 20.3605 2.26414 20.4555 2.24909 20.5545C2.23404 20.6535 2.23897 20.7546 2.2636 20.8516C2.28822 20.9487 2.33204 21.0399 2.39247 21.1198C2.4529 21.1996 2.52871 21.2666 2.61544 21.3167C2.70217 21.3668 2.79805 21.399 2.89742 21.4114C2.9968 21.4239 3.09767 21.4163 3.19406 21.3891C3.29046 21.3619 3.38044 21.3157 3.45869 21.2532C3.53694 21.1907 3.60187 21.1131 3.64967 21.0251C5.41592 17.9726 8.53779 16.1501 12 16.1501C15.4622 16.1501 18.584 17.9726 20.3503 21.0251C20.3981 21.1131 20.463 21.1907 20.5413 21.2532C20.6195 21.3157 20.7095 21.3619 20.8059 21.3891C20.9023 21.4163 21.0032 21.4239 21.1025 21.4114C21.2019 21.399 21.2978 21.3668 21.3845 21.3167C21.4712 21.2666 21.5471 21.1996 21.6075 21.1198C21.6679 21.0399 21.7117 20.9487 21.7364 20.8516C21.761 20.7546 21.7659 20.6535 21.7509 20.5545C21.7358 20.4555 21.7011 20.3605 21.6487 20.2751ZM6.74998 9.40013C6.74998 8.36178 7.05789 7.34675 7.63476 6.48339C8.21164 5.62003 9.03158 4.94713 9.99089 4.54977C10.9502 4.15241 12.0058 4.04844 13.0242 4.25101C14.0426 4.45358 14.9781 4.9536 15.7123 5.68782C16.4465 6.42205 16.9465 7.35751 17.1491 8.37591C17.3517 9.39431 17.2477 10.4499 16.8503 11.4092C16.453 12.3685 15.7801 13.1885 14.9167 13.7653C14.0534 14.3422 13.0383 14.6501 12 14.6501C10.608 14.6486 9.27356 14.095 8.28931 13.1108C7.30507 12.1266 6.75147 10.7921 6.74998 9.40013Z" fill="white"/>
</svg>
